<svg width="156" height="86" xmlns="http://www.w3.org/2000/svg" xmlns:svg="http://www.w3.org/2000/svg">
 <!-- Created with SVG-edit - http://svg-edit.googlecode.com/ -->

 <g>
  <title>Layer 1</title>
  <g id="svg_1">
   <path d="m132.70067,23.11211c-19.43997,-13.66619 -40.23035,-5.78526 -52.10555,-1.95231c-11.87522,3.83295 -31.39898,31.09365 -39.44996,28.0935c-8.05093,-3.00015 -39.95076,-65.26877 -32.74884,-42.77827c7.20195,22.4905 9.08482,45.27416 8.70262,50.52418c-0.38215,5.24999 -17.13135,15.66203 -12.53619,19.99833c4.59512,4.3363 14.56537,-9.55168 31.39609,-13.52748c8.41535,-1.98788 32.20246,20.96958 57.19211,19.96926c24.98967,-1.00032 48.473,-3.71017 55.80283,-17.37634c7.32985,-13.66619 3.18686,-29.28468 -16.25311,-42.95087l0,0l0,0z" id="small_fish" stroke-width="2" fill="#9D9949" stroke="#000000"/>
  </g>
 </g>
</svg>